<mxfile host="app.diagrams.net" agent="Mozilla/5.0 (Windows NT 10.0; Win64; x64) AppleWebKit/537.36 (KHTML, like Gecko) Chrome/130.0.0.0 Safari/537.36" version="24.8.0">
  <diagram id="C5RBs43oDa-KdzZeNtuy" name="Page-1">
    <mxGraphModel dx="1114" dy="658" grid="1" gridSize="10" guides="1" tooltips="1" connect="1" arrows="1" fold="1" page="1" pageScale="1" pageWidth="827" pageHeight="1169" math="0" shadow="0">
      <root>
        <mxCell id="WIyWlLk6GJQsqaUBKTNV-0" />
        <mxCell id="WIyWlLk6GJQsqaUBKTNV-1" parent="WIyWlLk6GJQsqaUBKTNV-0" />
        <mxCell id="nxRW7h_ZGKTyjYu1iA0R-18" value="&lt;b&gt;&lt;font style=&quot;font-size: 15px;&quot;&gt;Store branch&lt;/font&gt;&lt;/b&gt;" style="swimlane;fontStyle=0;childLayout=stackLayout;horizontal=1;startSize=26;fillColor=none;horizontalStack=0;resizeParent=1;resizeParentMax=0;resizeLast=0;collapsible=1;marginBottom=0;whiteSpace=wrap;html=1;" parent="WIyWlLk6GJQsqaUBKTNV-1" vertex="1">
          <mxGeometry x="320" y="320" width="120" height="160" as="geometry" />
        </mxCell>
        <mxCell id="nxRW7h_ZGKTyjYu1iA0R-19" value="- name [0..*]&lt;br&gt;- has_warehouse" style="text;strokeColor=none;fillColor=none;align=left;verticalAlign=top;spacingLeft=4;spacingRight=4;overflow=hidden;rotatable=0;points=[[0,0.5],[1,0.5]];portConstraint=eastwest;whiteSpace=wrap;html=1;fontSize=14;" parent="nxRW7h_ZGKTyjYu1iA0R-18" vertex="1">
          <mxGeometry y="26" width="120" height="134" as="geometry" />
        </mxCell>
        <mxCell id="nxRW7h_ZGKTyjYu1iA0R-22" value="" style="line;strokeWidth=1;fillColor=none;align=left;verticalAlign=middle;spacingTop=-1;spacingLeft=3;spacingRight=3;rotatable=0;labelPosition=right;points=[];portConstraint=eastwest;strokeColor=inherit;" parent="WIyWlLk6GJQsqaUBKTNV-1" vertex="1">
          <mxGeometry x="440" y="420" width="200" height="8" as="geometry" />
        </mxCell>
        <mxCell id="nxRW7h_ZGKTyjYu1iA0R-27" value="&lt;b&gt;&lt;font style=&quot;font-size: 15px;&quot;&gt;Address&lt;/font&gt;&lt;/b&gt;" style="swimlane;fontStyle=0;childLayout=stackLayout;horizontal=1;startSize=26;fillColor=none;horizontalStack=0;resizeParent=1;resizeParentMax=0;resizeLast=0;collapsible=1;marginBottom=0;whiteSpace=wrap;html=1;" parent="WIyWlLk6GJQsqaUBKTNV-1" vertex="1">
          <mxGeometry x="640" y="320" width="120" height="160" as="geometry" />
        </mxCell>
        <mxCell id="nxRW7h_ZGKTyjYu1iA0R-28" value="- city" style="text;strokeColor=none;fillColor=none;align=left;verticalAlign=top;spacingLeft=4;spacingRight=4;overflow=hidden;rotatable=0;points=[[0,0.5],[1,0.5]];portConstraint=eastwest;whiteSpace=wrap;html=1;fontSize=14;" parent="nxRW7h_ZGKTyjYu1iA0R-27" vertex="1">
          <mxGeometry y="26" width="120" height="26" as="geometry" />
        </mxCell>
        <mxCell id="nxRW7h_ZGKTyjYu1iA0R-30" value="- street" style="text;strokeColor=none;fillColor=none;align=left;verticalAlign=top;spacingLeft=4;spacingRight=4;overflow=hidden;rotatable=0;points=[[0,0.5],[1,0.5]];portConstraint=eastwest;whiteSpace=wrap;html=1;fontSize=14;" parent="nxRW7h_ZGKTyjYu1iA0R-27" vertex="1">
          <mxGeometry y="52" width="120" height="26" as="geometry" />
        </mxCell>
        <mxCell id="nxRW7h_ZGKTyjYu1iA0R-29" value="- zip_code" style="text;strokeColor=none;fillColor=none;align=left;verticalAlign=top;spacingLeft=4;spacingRight=4;overflow=hidden;rotatable=0;points=[[0,0.5],[1,0.5]];portConstraint=eastwest;whiteSpace=wrap;html=1;fontSize=14;" parent="nxRW7h_ZGKTyjYu1iA0R-27" vertex="1">
          <mxGeometry y="78" width="120" height="82" as="geometry" />
        </mxCell>
        <mxCell id="nxRW7h_ZGKTyjYu1iA0R-33" value="located at" style="text;align=center;fontStyle=0;verticalAlign=middle;spacingLeft=3;spacingRight=3;strokeColor=none;rotatable=0;points=[[0,0.5],[1,0.5]];portConstraint=eastwest;html=1;fontSize=14;" parent="WIyWlLk6GJQsqaUBKTNV-1" vertex="1">
          <mxGeometry x="500" y="428" width="80" height="26" as="geometry" />
        </mxCell>
        <mxCell id="nxRW7h_ZGKTyjYu1iA0R-34" value="0..1" style="text;strokeColor=none;fillColor=none;align=left;verticalAlign=top;spacingLeft=4;spacingRight=4;overflow=hidden;rotatable=0;points=[[0,0.5],[1,0.5]];portConstraint=eastwest;whiteSpace=wrap;html=1;" parent="WIyWlLk6GJQsqaUBKTNV-1" vertex="1">
          <mxGeometry x="440" y="394" width="40" height="26" as="geometry" />
        </mxCell>
        <mxCell id="nxRW7h_ZGKTyjYu1iA0R-35" value="1..1" style="text;strokeColor=none;fillColor=none;align=left;verticalAlign=top;spacingLeft=4;spacingRight=4;overflow=hidden;rotatable=0;points=[[0,0.5],[1,0.5]];portConstraint=eastwest;whiteSpace=wrap;html=1;" parent="WIyWlLk6GJQsqaUBKTNV-1" vertex="1">
          <mxGeometry x="600" y="394" width="40" height="26" as="geometry" />
        </mxCell>
        <mxCell id="nxRW7h_ZGKTyjYu1iA0R-39" value="&lt;b&gt;&lt;font style=&quot;font-size: 15px;&quot;&gt;Customer&lt;/font&gt;&lt;/b&gt;" style="swimlane;fontStyle=0;childLayout=stackLayout;horizontal=1;startSize=26;fillColor=none;horizontalStack=0;resizeParent=1;resizeParentMax=0;resizeLast=0;collapsible=1;marginBottom=0;whiteSpace=wrap;html=1;" parent="WIyWlLk6GJQsqaUBKTNV-1" vertex="1">
          <mxGeometry x="320" y="679" width="120" height="200" as="geometry" />
        </mxCell>
        <mxCell id="nxRW7h_ZGKTyjYu1iA0R-40" value="-&amp;nbsp;given_name" style="text;strokeColor=none;fillColor=none;align=left;verticalAlign=top;spacingLeft=4;spacingRight=4;overflow=hidden;rotatable=0;points=[[0,0.5],[1,0.5]];portConstraint=eastwest;whiteSpace=wrap;html=1;fontSize=14;" parent="nxRW7h_ZGKTyjYu1iA0R-39" vertex="1">
          <mxGeometry y="26" width="120" height="26" as="geometry" />
        </mxCell>
        <mxCell id="nxRW7h_ZGKTyjYu1iA0R-42" value="-&amp;nbsp;family_name" style="text;strokeColor=none;fillColor=none;align=left;verticalAlign=top;spacingLeft=4;spacingRight=4;overflow=hidden;rotatable=0;points=[[0,0.5],[1,0.5]];portConstraint=eastwest;whiteSpace=wrap;html=1;fontSize=14;" parent="nxRW7h_ZGKTyjYu1iA0R-39" vertex="1">
          <mxGeometry y="52" width="120" height="26" as="geometry" />
        </mxCell>
        <mxCell id="nxRW7h_ZGKTyjYu1iA0R-43" value="- birth_date" style="text;strokeColor=none;fillColor=none;align=left;verticalAlign=top;spacingLeft=4;spacingRight=4;overflow=hidden;rotatable=0;points=[[0,0.5],[1,0.5]];portConstraint=eastwest;whiteSpace=wrap;html=1;fontSize=14;" parent="nxRW7h_ZGKTyjYu1iA0R-39" vertex="1">
          <mxGeometry y="78" width="120" height="26" as="geometry" />
        </mxCell>
        <mxCell id="nxRW7h_ZGKTyjYu1iA0R-41" value="-&amp;nbsp;phone_number" style="text;strokeColor=none;fillColor=none;align=left;verticalAlign=top;spacingLeft=4;spacingRight=4;overflow=hidden;rotatable=0;points=[[0,0.5],[1,0.5]];portConstraint=eastwest;whiteSpace=wrap;html=1;fontSize=14;" parent="nxRW7h_ZGKTyjYu1iA0R-39" vertex="1">
          <mxGeometry y="104" width="120" height="96" as="geometry" />
        </mxCell>
        <mxCell id="nxRW7h_ZGKTyjYu1iA0R-47" value="1..1" style="text;strokeColor=none;fillColor=none;align=left;verticalAlign=top;spacingLeft=4;spacingRight=4;overflow=hidden;rotatable=0;points=[[0,0.5],[1,0.5]];portConstraint=eastwest;whiteSpace=wrap;html=1;" parent="WIyWlLk6GJQsqaUBKTNV-1" vertex="1">
          <mxGeometry x="380" y="480" width="40" height="26" as="geometry" />
        </mxCell>
        <mxCell id="nxRW7h_ZGKTyjYu1iA0R-52" value="" style="endArrow=none;html=1;rounded=0;" parent="WIyWlLk6GJQsqaUBKTNV-1" source="nxRW7h_ZGKTyjYu1iA0R-19" edge="1">
          <mxGeometry width="50" height="50" relative="1" as="geometry">
            <mxPoint x="380.00000000000006" y="488.9999999999999" as="sourcePoint" />
            <mxPoint x="380.00000000000006" y="679" as="targetPoint" />
          </mxGeometry>
        </mxCell>
        <mxCell id="nxRW7h_ZGKTyjYu1iA0R-53" value="0..n" style="text;strokeColor=none;fillColor=none;align=left;verticalAlign=top;spacingLeft=4;spacingRight=4;overflow=hidden;rotatable=0;points=[[0,0.5],[1,0.5]];portConstraint=eastwest;whiteSpace=wrap;html=1;" parent="WIyWlLk6GJQsqaUBKTNV-1" vertex="1">
          <mxGeometry x="380" y="653" width="40" height="26" as="geometry" />
        </mxCell>
        <mxCell id="nxRW7h_ZGKTyjYu1iA0R-54" value="shops at" style="text;align=center;fontStyle=0;verticalAlign=middle;spacingLeft=3;spacingRight=3;strokeColor=none;rotatable=0;points=[[0,0.5],[1,0.5]];portConstraint=eastwest;html=1;fontSize=14;" parent="WIyWlLk6GJQsqaUBKTNV-1" vertex="1">
          <mxGeometry x="380" y="571" width="80" height="26" as="geometry" />
        </mxCell>
        <mxCell id="nxRW7h_ZGKTyjYu1iA0R-55" value="&lt;b&gt;&lt;font style=&quot;font-size: 15px;&quot;&gt;Loyalty Card&lt;/font&gt;&lt;/b&gt;" style="swimlane;fontStyle=0;childLayout=stackLayout;horizontal=1;startSize=26;fillColor=none;horizontalStack=0;resizeParent=1;resizeParentMax=0;resizeLast=0;collapsible=1;marginBottom=0;whiteSpace=wrap;html=1;" parent="WIyWlLk6GJQsqaUBKTNV-1" vertex="1">
          <mxGeometry x="20" y="679" width="120" height="200" as="geometry" />
        </mxCell>
        <mxCell id="nxRW7h_ZGKTyjYu1iA0R-56" value="-&amp;nbsp;number" style="text;strokeColor=none;fillColor=none;align=left;verticalAlign=top;spacingLeft=4;spacingRight=4;overflow=hidden;rotatable=0;points=[[0,0.5],[1,0.5]];portConstraint=eastwest;whiteSpace=wrap;html=1;fontSize=14;" parent="nxRW7h_ZGKTyjYu1iA0R-55" vertex="1">
          <mxGeometry y="26" width="120" height="26" as="geometry" />
        </mxCell>
        <mxCell id="nxRW7h_ZGKTyjYu1iA0R-57" value="-&amp;nbsp;points" style="text;strokeColor=none;fillColor=none;align=left;verticalAlign=top;spacingLeft=4;spacingRight=4;overflow=hidden;rotatable=0;points=[[0,0.5],[1,0.5]];portConstraint=eastwest;whiteSpace=wrap;html=1;fontSize=14;" parent="nxRW7h_ZGKTyjYu1iA0R-55" vertex="1">
          <mxGeometry y="52" width="120" height="148" as="geometry" />
        </mxCell>
        <mxCell id="nxRW7h_ZGKTyjYu1iA0R-60" value="" style="line;strokeWidth=1;fillColor=none;align=left;verticalAlign=middle;spacingTop=-1;spacingLeft=3;spacingRight=3;rotatable=0;labelPosition=right;points=[];portConstraint=eastwest;strokeColor=inherit;" parent="WIyWlLk6GJQsqaUBKTNV-1" vertex="1">
          <mxGeometry x="140" y="812" width="180" height="8" as="geometry" />
        </mxCell>
        <mxCell id="nxRW7h_ZGKTyjYu1iA0R-61" value="0..1" style="text;strokeColor=none;fillColor=none;align=left;verticalAlign=top;spacingLeft=4;spacingRight=4;overflow=hidden;rotatable=0;points=[[0,0.5],[1,0.5]];portConstraint=eastwest;whiteSpace=wrap;html=1;" parent="WIyWlLk6GJQsqaUBKTNV-1" vertex="1">
          <mxGeometry x="140" y="794" width="40" height="26" as="geometry" />
        </mxCell>
        <mxCell id="nxRW7h_ZGKTyjYu1iA0R-62" value="1..1" style="text;strokeColor=none;fillColor=none;align=left;verticalAlign=top;spacingLeft=4;spacingRight=4;overflow=hidden;rotatable=0;points=[[0,0.5],[1,0.5]];portConstraint=eastwest;whiteSpace=wrap;html=1;" parent="WIyWlLk6GJQsqaUBKTNV-1" vertex="1">
          <mxGeometry x="280" y="794" width="40" height="26" as="geometry" />
        </mxCell>
        <mxCell id="nxRW7h_ZGKTyjYu1iA0R-63" value="has&amp;nbsp;loyalty card" style="text;align=center;fontStyle=0;verticalAlign=middle;spacingLeft=3;spacingRight=3;strokeColor=none;rotatable=0;points=[[0,0.5],[1,0.5]];portConstraint=eastwest;html=1;fontSize=14;" parent="WIyWlLk6GJQsqaUBKTNV-1" vertex="1">
          <mxGeometry x="190" y="820" width="80" height="26" as="geometry" />
        </mxCell>
        <mxCell id="nxRW7h_ZGKTyjYu1iA0R-64" value="&lt;b&gt;&lt;font style=&quot;font-size: 15px;&quot;&gt;Employee&lt;/font&gt;&lt;/b&gt;" style="swimlane;fontStyle=0;childLayout=stackLayout;horizontal=1;startSize=26;fillColor=none;horizontalStack=0;resizeParent=1;resizeParentMax=0;resizeLast=0;collapsible=1;marginBottom=0;whiteSpace=wrap;html=1;" parent="WIyWlLk6GJQsqaUBKTNV-1" vertex="1">
          <mxGeometry x="40" y="320" width="120" height="160" as="geometry" />
        </mxCell>
        <mxCell id="nxRW7h_ZGKTyjYu1iA0R-65" value="- given_name" style="text;strokeColor=none;fillColor=none;align=left;verticalAlign=top;spacingLeft=4;spacingRight=4;overflow=hidden;rotatable=0;points=[[0,0.5],[1,0.5]];portConstraint=eastwest;whiteSpace=wrap;html=1;fontSize=14;" parent="nxRW7h_ZGKTyjYu1iA0R-64" vertex="1">
          <mxGeometry y="26" width="120" height="26" as="geometry" />
        </mxCell>
        <mxCell id="nxRW7h_ZGKTyjYu1iA0R-66" value="-&amp;nbsp;family_name" style="text;strokeColor=none;fillColor=none;align=left;verticalAlign=top;spacingLeft=4;spacingRight=4;overflow=hidden;rotatable=0;points=[[0,0.5],[1,0.5]];portConstraint=eastwest;whiteSpace=wrap;html=1;fontSize=14;" parent="nxRW7h_ZGKTyjYu1iA0R-64" vertex="1">
          <mxGeometry y="52" width="120" height="108" as="geometry" />
        </mxCell>
        <mxCell id="nxRW7h_ZGKTyjYu1iA0R-68" value="" style="line;strokeWidth=1;fillColor=none;align=left;verticalAlign=middle;spacingTop=-1;spacingLeft=3;spacingRight=3;rotatable=0;labelPosition=right;points=[];portConstraint=eastwest;strokeColor=inherit;" parent="WIyWlLk6GJQsqaUBKTNV-1" vertex="1">
          <mxGeometry x="160" y="420" width="160" height="8" as="geometry" />
        </mxCell>
        <mxCell id="nxRW7h_ZGKTyjYu1iA0R-69" value="0..n" style="text;strokeColor=none;fillColor=none;align=left;verticalAlign=top;spacingLeft=4;spacingRight=4;overflow=hidden;rotatable=0;points=[[0,0.5],[1,0.5]];portConstraint=eastwest;whiteSpace=wrap;html=1;" parent="WIyWlLk6GJQsqaUBKTNV-1" vertex="1">
          <mxGeometry x="160" y="394" width="40" height="26" as="geometry" />
        </mxCell>
        <mxCell id="nxRW7h_ZGKTyjYu1iA0R-70" value="1..1" style="text;strokeColor=none;fillColor=none;align=left;verticalAlign=top;spacingLeft=4;spacingRight=4;overflow=hidden;rotatable=0;points=[[0,0.5],[1,0.5]];portConstraint=eastwest;whiteSpace=wrap;html=1;" parent="WIyWlLk6GJQsqaUBKTNV-1" vertex="1">
          <mxGeometry x="280" y="394" width="40" height="26" as="geometry" />
        </mxCell>
        <mxCell id="nxRW7h_ZGKTyjYu1iA0R-71" value="works at" style="text;align=center;fontStyle=0;verticalAlign=middle;spacingLeft=3;spacingRight=3;strokeColor=none;rotatable=0;points=[[0,0.5],[1,0.5]];portConstraint=eastwest;html=1;fontSize=14;" parent="WIyWlLk6GJQsqaUBKTNV-1" vertex="1">
          <mxGeometry x="190" y="428" width="80" height="26" as="geometry" />
        </mxCell>
        <mxCell id="nxRW7h_ZGKTyjYu1iA0R-72" value="&lt;b&gt;&lt;font style=&quot;font-size: 15px;&quot;&gt;Cash Register&lt;/font&gt;&lt;/b&gt;" style="swimlane;fontStyle=0;childLayout=stackLayout;horizontal=1;startSize=26;fillColor=none;horizontalStack=0;resizeParent=1;resizeParentMax=0;resizeLast=0;collapsible=1;marginBottom=0;whiteSpace=wrap;html=1;" parent="WIyWlLk6GJQsqaUBKTNV-1" vertex="1">
          <mxGeometry x="320" y="20" width="140" height="146" as="geometry" />
        </mxCell>
        <mxCell id="nxRW7h_ZGKTyjYu1iA0R-73" value="-&amp;nbsp;number" style="text;strokeColor=none;fillColor=none;align=left;verticalAlign=top;spacingLeft=4;spacingRight=4;overflow=hidden;rotatable=0;points=[[0,0.5],[1,0.5]];portConstraint=eastwest;whiteSpace=wrap;html=1;fontSize=14;" parent="nxRW7h_ZGKTyjYu1iA0R-72" vertex="1">
          <mxGeometry y="26" width="140" height="26" as="geometry" />
        </mxCell>
        <mxCell id="WlT9pGX_7G0VzGwxj9KD-0" value="- is_self_checkout" style="text;strokeColor=none;fillColor=none;align=left;verticalAlign=top;spacingLeft=4;spacingRight=4;overflow=hidden;rotatable=0;points=[[0,0.5],[1,0.5]];portConstraint=eastwest;whiteSpace=wrap;html=1;fontSize=14;" vertex="1" parent="nxRW7h_ZGKTyjYu1iA0R-72">
          <mxGeometry y="52" width="140" height="26" as="geometry" />
        </mxCell>
        <mxCell id="nxRW7h_ZGKTyjYu1iA0R-74" value="&lt;div&gt;&lt;br&gt;&lt;/div&gt;&lt;div&gt;&lt;br&gt;&lt;/div&gt;" style="text;strokeColor=none;fillColor=none;align=left;verticalAlign=top;spacingLeft=4;spacingRight=4;overflow=hidden;rotatable=0;points=[[0,0.5],[1,0.5]];portConstraint=eastwest;whiteSpace=wrap;html=1;" parent="nxRW7h_ZGKTyjYu1iA0R-72" vertex="1">
          <mxGeometry y="78" width="140" height="68" as="geometry" />
        </mxCell>
        <mxCell id="nxRW7h_ZGKTyjYu1iA0R-78" value="" style="endArrow=none;html=1;rounded=0;entryX=0.25;entryY=1.154;entryDx=0;entryDy=0;entryPerimeter=0;exitX=0.5;exitY=0;exitDx=0;exitDy=0;" parent="WIyWlLk6GJQsqaUBKTNV-1" source="nxRW7h_ZGKTyjYu1iA0R-18" edge="1" target="nxRW7h_ZGKTyjYu1iA0R-79">
          <mxGeometry width="50" height="50" relative="1" as="geometry">
            <mxPoint x="380" y="297.62" as="sourcePoint" />
            <mxPoint x="378.55999999999995" y="140.0000000000001" as="targetPoint" />
            <Array as="points">
              <mxPoint x="379" y="217.62" />
            </Array>
          </mxGeometry>
        </mxCell>
        <mxCell id="nxRW7h_ZGKTyjYu1iA0R-79" value="1..n" style="text;strokeColor=none;fillColor=none;align=left;verticalAlign=top;spacingLeft=4;spacingRight=4;overflow=hidden;rotatable=0;points=[[0,0.5],[1,0.5]];portConstraint=eastwest;whiteSpace=wrap;html=1;" parent="WIyWlLk6GJQsqaUBKTNV-1" vertex="1">
          <mxGeometry x="380" y="140" width="40" height="26" as="geometry" />
        </mxCell>
        <mxCell id="nxRW7h_ZGKTyjYu1iA0R-80" value="1..1" style="text;strokeColor=none;fillColor=none;align=left;verticalAlign=top;spacingLeft=4;spacingRight=4;overflow=hidden;rotatable=0;points=[[0,0.5],[1,0.5]];portConstraint=eastwest;whiteSpace=wrap;html=1;" parent="WIyWlLk6GJQsqaUBKTNV-1" vertex="1">
          <mxGeometry x="380" y="290" width="40" height="30" as="geometry" />
        </mxCell>
        <mxCell id="nxRW7h_ZGKTyjYu1iA0R-81" value="&lt;font style=&quot;font-size: 14px;&quot;&gt;located at&lt;/font&gt;" style="text;align=center;fontStyle=0;verticalAlign=middle;spacingLeft=3;spacingRight=3;strokeColor=none;rotatable=0;points=[[0,0.5],[1,0.5]];portConstraint=eastwest;html=1;" parent="WIyWlLk6GJQsqaUBKTNV-1" vertex="1">
          <mxGeometry x="300" y="220" width="80" height="26" as="geometry" />
        </mxCell>
        <mxCell id="nxRW7h_ZGKTyjYu1iA0R-85" value="" style="endArrow=none;html=1;rounded=0;exitX=0.34;exitY=-0.004;exitDx=0;exitDy=0;exitPerimeter=0;" parent="WIyWlLk6GJQsqaUBKTNV-1" source="nxRW7h_ZGKTyjYu1iA0R-64" edge="1">
          <mxGeometry width="50" height="50" relative="1" as="geometry">
            <mxPoint x="81" y="318" as="sourcePoint" />
            <mxPoint x="318" y="100" as="targetPoint" />
            <Array as="points">
              <mxPoint x="80" y="100" />
            </Array>
          </mxGeometry>
        </mxCell>
        <mxCell id="nxRW7h_ZGKTyjYu1iA0R-86" value="1..1" style="text;strokeColor=none;fillColor=none;align=left;verticalAlign=top;spacingLeft=4;spacingRight=4;overflow=hidden;rotatable=0;points=[[0,0.5],[1,0.5]];portConstraint=eastwest;whiteSpace=wrap;html=1;" parent="WIyWlLk6GJQsqaUBKTNV-1" vertex="1">
          <mxGeometry x="80" y="290" width="40" height="26" as="geometry" />
        </mxCell>
        <mxCell id="nxRW7h_ZGKTyjYu1iA0R-87" value="0..n" style="text;strokeColor=none;fillColor=none;align=left;verticalAlign=top;spacingLeft=4;spacingRight=4;overflow=hidden;rotatable=0;points=[[0,0.5],[1,0.5]];portConstraint=eastwest;whiteSpace=wrap;html=1;" parent="WIyWlLk6GJQsqaUBKTNV-1" vertex="1">
          <mxGeometry x="280" y="100" width="40" height="26" as="geometry" />
        </mxCell>
        <mxCell id="nxRW7h_ZGKTyjYu1iA0R-89" value="leads" style="text;align=center;fontStyle=0;verticalAlign=middle;spacingLeft=3;spacingRight=3;strokeColor=none;rotatable=0;points=[[0,0.5],[1,0.5]];portConstraint=eastwest;html=1;fontSize=14;" parent="WIyWlLk6GJQsqaUBKTNV-1" vertex="1">
          <mxGeometry x="70" y="114" width="80" height="26" as="geometry" />
        </mxCell>
      </root>
    </mxGraphModel>
  </diagram>
</mxfile>
